<svg xmlns="http://www.w3.org/2000/svg" width="1200" height="300" viewBox="0 0 1200 300" role="img" aria-label="platform-agent-stack — Agent topology, risk policy and pluggable backends in one repo."><title>platform-agent-stack</title><desc>Agent topology, risk policy and pluggable backends in one repo.</desc><defs><pattern id="g" width="26" height="26" patternUnits="userSpaceOnUse"><circle cx="1" cy="1" r="1" fill="#1b2735"/></pattern><linearGradient id="fade" x1="0" y1="0" x2="1" y2="0"><stop offset="0" stop-color="#0d141c" stop-opacity="0"/><stop offset="1" stop-color="#0d141c" stop-opacity="0.85"/></linearGradient><linearGradient id="glow" x1="0" y1="0" x2="1" y2="1"><stop offset="0" stop-color="#e2e8f0" stop-opacity="0.16"/><stop offset="1" stop-color="#e2e8f0" stop-opacity="0"/></linearGradient></defs><rect width="1200" height="300" rx="10" fill="#0d141c"/><rect width="1200" height="300" rx="10" fill="url(#g)"/><rect width="1200" height="300" rx="10" fill="url(#glow)"/><rect x="0" y="0" width="7" height="300" fill="#e2e8f0"/><rect x="0.5" y="0.5" width="1199" height="299" rx="10" fill="none" stroke="#1b2735" stroke-width="1"/><g transform="translate(720,0)" opacity="0.92"><g transform="translate(0,22)"><path d="M110 44 L300 44 L330 62 L140 62 Z" fill="none" stroke="#e2e8f0" stroke-width="1.8" opacity="1.00"/><path d="M119 70 L291 70 L321 88 L149 88 Z" fill="none" stroke="#e2e8f0" stroke-width="1.8" opacity="0.87"/><path d="M128 96 L282 96 L312 114 L158 114 Z" fill="none" stroke="#e2e8f0" stroke-width="1.8" opacity="0.74"/><path d="M137 122 L273 122 L303 140 L167 140 Z" fill="none" stroke="#e2e8f0" stroke-width="1.8" opacity="0.61"/><path d="M146 148 L264 148 L294 166 L176 166 Z" fill="none" stroke="#e2e8f0" stroke-width="1.8" opacity="0.48"/><path d="M155 174 L255 174 L285 192 L185 192 Z" fill="none" stroke="#e2e8f0" stroke-width="1.8" opacity="0.35"/><path d="M352 60 V196" stroke="#e2e8f0" stroke-width="1.4" opacity="0.4"/><path d="M346 60 H358 M346 196 H358" stroke="#e2e8f0" stroke-width="1.4" opacity="0.4"/><text x="378" y="132" font-family="ui-monospace,SFMono-Regular,'SF Mono',Menlo,Consolas,monospace" font-size="11" fill="#5c6773" text-anchor="middle" transform="rotate(90 378 132)">one repo</text></g></g><rect x="690" y="0" width="80" height="300" fill="url(#fade)" opacity="0.35" transform="scale(-1,1) translate(-1460,0)"/><text x="60" y="92" font-family="ui-monospace,SFMono-Regular,'SF Mono',Menlo,Consolas,monospace" font-size="12.5" letter-spacing="2.6" fill="#e2e8f0" font-weight="600">COMPOSITION</text><text x="58" y="152" font-family="ui-monospace,SFMono-Regular,'SF Mono',Menlo,Consolas,monospace" font-size="40" font-weight="700" fill="#e6edf3">platform-agent-stack</text><text x="60" y="192" font-family="-apple-system,BlinkMacSystemFont,'Segoe UI',Helvetica,Arial,sans-serif" font-size="18" fill="#8b98a5">Agent topology, risk policy and pluggable backends in one repo.</text><path d="M60 218 H196" stroke="#e2e8f0" stroke-width="2" opacity="0.55"/><text x="60" y="248" font-family="ui-monospace,SFMono-Regular,'SF Mono',Menlo,Consolas,monospace" font-size="12.5" fill="#5c6773">swarm  ·  policy  ·  itsm  ·  llm  ·  confluence</text></svg>